<?xml version="1.0" standalone="no"?><!DOCTYPE svg PUBLIC "-//W3C//DTD SVG 1.1//EN" "http://www.w3.org/Graphics/SVG/1.1/DTD/svg11.dtd"><svg t="1715567772206" class="icon" viewBox="0 0 1024 1024" version="1.1" xmlns="http://www.w3.org/2000/svg" p-id="17876" xmlns:xlink="http://www.w3.org/1999/xlink" width="200" height="200"><path d="M518.912 468.3008l-208.3072-208.3072a30.8224 30.8224 0 0 0-22.6304-9.3696c-8.832 0-16.384 3.1232-22.6304 9.3696a30.8224 30.8224 0 0 0-9.3696 22.6304c0 8.832 3.1232 16.384 9.3696 22.6304l42.368 42.3424c1.024 0.9472 2.0224 1.8944 2.9952 2.8928l162.9184 162.8928-0.0768 0.0768 0.1024 0.0768-36.224 36.1984-164.6592-164.6592a24.5248 24.5248 0 0 0-16.3584-5.888 24.6528 24.6528 0 0 0-18.0992 7.5008 24.6528 24.6528 0 0 0-7.5008 18.0992c0 7.0656 2.5088 13.1072 7.5008 18.0992l162.9184 162.9184-36.1984 36.1984-137.1136-137.1136c-4.3008 1.28-8.6016 4.0448-12.8768 8.32-7.168 7.168-10.5728 15.1552-10.2144 23.9872 0.4096 9.7536 5.1712 19.2 14.3104 28.3392l219.5968 219.5968c54.8096 54.8352 109.9776 83.712 165.5296 86.656 53.7088 2.8672 103.8848-19.0208 150.5024-65.6384l0.3584-0.384 10.496-9.6512c79.488-79.36 92.0832-176.0512 37.8368-290.048l-85.2992-178.944a66.3296 66.3296 0 0 0-13.568-19.5328c-7.552-7.552-15.9744-11.2896-25.2672-11.2128-9.344 0.0768-17.792 3.9168-25.3696 11.4688-10.5472 10.5984-12.1088 25.0112-4.6592 43.264l32.6144 76.8 0.1024 0.3072c1.792 4.5568 2.56 9.088 2.2272 13.6192-0.512 7.424-3.328 13.4656-8.448 18.2016-6.144 6.4512-13.8752 9.088-23.168 7.936a28.928 28.928 0 0 1-17.3056-8.576l-43.8272-43.8528-0.2048 0.2048-180.992-181.0176a24.6784 24.6784 0 0 0-18.1248-7.5008 24.6528 24.6528 0 0 0-18.0992 7.5008 24.6528 24.6528 0 0 0-7.5008 18.0992c0 7.0656 2.5088 13.0816 7.5008 18.0992l181.0176 180.992-0.0512 0.1024 0.0512 0.0512zM179.584 404.7872c0-21.2224 7.5008-39.3216 22.5024-54.2976 6.5024-6.528 13.6192-11.6224 21.2992-15.3088C210.9952 320.2304 204.8 302.72 204.8 282.624c0-22.9632 8.1408-42.5728 24.3712-58.8288a80.1536 80.1536 0 0 1 58.8288-24.3712c11.5712 0 22.272 2.048 32.128 6.1696 3.7376-9.9328 9.6512-18.944 17.7664-27.0848a73.984 73.984 0 0 1 54.2976-22.4768 73.984 73.984 0 0 1 54.3232 22.4768l4.48 4.5056 0.256-0.2304 143.7696 143.8464a91.4432 91.4432 0 0 1-0.256-29.7728c2.816-17.5872 10.496-32.64 23.0144-45.2096 17.4336-17.4336 37.8112-26.2656 61.1072-26.4704 23.6288-0.2048 44.2112 8.4736 61.7472 26.0608 10.0352 9.9328 17.9712 21.248 23.7824 33.8688l85.2992 178.944c31.488 66.2016 43.2896 128.768 35.4048 187.648-8.0384 59.8016-35.9168 113.4848-83.6864 161.024l-0.3584 0.3584-10.4704 9.6512c-57.2672 57.088-120.2688 83.84-189.0304 80.1792-68.608-3.6352-134.9632-37.4784-199.0144-101.5552l-219.5968-219.6224C164.352 563.2 154.624 542.3872 153.6768 519.296c-0.9984-23.7568 7.424-44.544 25.2416-62.3616 4.096-4.096 8.32-7.6544 12.672-10.7008a73.8816 73.8816 0 0 1-11.9808-41.472z" p-id="17877"></path></svg>